<?xml version="1.0" encoding="utf-8"?>
<!-- Generator: Adobe Illustrator 23.1.1, SVG Export Plug-In . SVG Version: 6.00 Build 0)  -->
<svg version="1.1" id="Layer_1" xmlns="http://www.w3.org/2000/svg" xmlns:xlink="http://www.w3.org/1999/xlink" x="0px" y="0px"
	 viewBox="0 0 72 56" enable-background="new 0 0 72 56" xml:space="preserve">
<rect fill="#f0f0f7" width="72" height="56"/>
<g id="Accessories">
	<path fill="none" d="M18.2,45.8c0,0.5,0.2,0.9,0.5,1.3c0.4,0.4,0.8,0.5,1.3,0.5h1.8V33.3H20c-0.5,0-0.9,0.2-1.3,0.5
		c-0.4,0.4-0.5,0.8-0.5,1.3V45.8z"/>
	<path fill="none" d="M52,33.3h-1.8v14.3H52c0.5,0,0.9-0.2,1.3-0.5c0.4-0.4,0.5-0.8,0.5-1.3V35.1c0-0.5-0.2-0.9-0.5-1.3
		C52.9,33.5,52.5,33.3,52,33.3z"/>
	<path fill="#107C10" d="M56.5,20.6c-0.5-1.8-1.2-3.5-2.2-5.1c-0.9-1.6-2-3-3.3-4.3s-2.7-2.4-4.3-3.3s-3.3-1.6-5.1-2.2
		C39.9,5.2,38,4.9,36,4.9s-3.9,0.3-5.7,0.8s-3.5,1.2-5.1,2.2c-1.6,0.9-3,2-4.3,3.3c-1.3,1.3-2.4,2.7-3.3,4.3s-1.6,3.3-2.2,5.1
		c-0.5,1.8-0.8,3.7-0.8,5.7v19.6c0,0.7,0.1,1.4,0.4,2.1c0.3,0.6,0.7,1.2,1.1,1.7c0.5,0.5,1,0.9,1.7,1.1c0.6,0.3,1.3,0.4,2.1,0.4h5.3
		V29.8H20c-0.6,0-1.2,0.1-1.8,0.3h-0.1v-3.9c0-2.4,0.5-4.8,1.4-6.9c0.9-2.2,2.2-4.1,3.8-5.7c1.6-1.6,3.5-2.9,5.7-3.8
		s4.5-1.4,6.9-1.4s4.8,0.5,6.9,1.4c2.2,0.9,4.1,2.2,5.7,3.8c1.6,1.6,2.9,3.5,3.8,5.7c0.9,2.2,1.4,4.5,1.4,6.9v3.9h-0.1
		c-0.6-0.2-1.2-0.3-1.8-0.3h-5.3v21.3H52c0.7,0,1.4-0.1,2.1-0.4c0.6-0.3,1.2-0.7,1.7-1.1c0.5-0.5,0.9-1,1.1-1.7
		c0.3-0.6,0.4-1.3,0.4-2.1V26.2C57.3,24.3,57.1,22.4,56.5,20.6z M18.7,33.8c0.4-0.4,0.8-0.5,1.3-0.5h1.8v14.3H20
		c-0.5,0-0.9-0.2-1.3-0.5c-0.4-0.4-0.5-0.8-0.5-1.3V35.1C18.2,34.6,18.3,34.2,18.7,33.8z M53.8,45.8c0,0.5-0.2,0.9-0.5,1.3
		c-0.4,0.4-0.8,0.5-1.3,0.5h-1.8V33.3H52c0.5,0,0.9,0.2,1.3,0.5c0.4,0.4,0.5,0.8,0.5,1.3V45.8z"/>
</g>
</svg>
