<?xml version="1.0" encoding="utf-8"?>
<!-- Generator: Adobe Illustrator 24.3.0, SVG Export Plug-In . SVG Version: 6.00 Build 0)  -->
<svg version="1.1" id="Layer_1" xmlns="http://www.w3.org/2000/svg" xmlns:xlink="http://www.w3.org/1999/xlink" x="0px" y="0px"
	 viewBox="0 0 72 56" style="enable-background:new 0 0 72 56;" xml:space="preserve">
<style type="text/css">
	.st0{fill:#f0f0f7;}
	.st1{fill:#107C10;}
</style>
<rect class="st0" width="72" height="56"/>
<g>
	<path class="st1" d="M32.9,11.1c-0.7-0.7-1.8-0.7-2.4,0c-0.3,0.3-0.5,0.7-0.5,1.2c0,0.5,0.2,0.9,0.5,1.2c0.3,0.3,0.7,0.5,1.2,0.5
		c0.5,0,0.9-0.2,1.2-0.5c0.3-0.3,0.5-0.7,0.5-1.2C33.4,11.9,33.3,11.5,32.9,11.1z"/>
	<path class="st1" d="M24.3,4.9v46.2h23.4V4.9H24.3z M30,27.7v20h-2.2V8.3h16.5v39.3H33.4v-20H30z"/>
</g>
</svg>
