<?xml version="1.0" encoding="utf-8"?>
<!-- Generator: Adobe Illustrator 23.1.1, SVG Export Plug-In . SVG Version: 6.00 Build 0)  -->
<svg version="1.1" id="Layer_1" xmlns="http://www.w3.org/2000/svg" xmlns:xlink="http://www.w3.org/1999/xlink" x="0px" y="0px"
	 viewBox="0 0 72 56" enable-background="new 0 0 72 56" xml:space="preserve">
<rect fill="#f0f0f7" width="72" height="56"/>
<path id="Sign_in" fill="#107C10" d="M55.3,44.5c-0.6-2-1.5-3.8-2.7-5.5c-1.1-1.7-2.6-3.1-4.2-4.4c-1.5-1.1-3.1-2-4.9-2.7
	c0.9-0.6,1.8-1.2,2.5-2c0.9-0.9,1.7-1.9,2.4-3c0.7-1.1,1.2-2.3,1.5-3.5c0.4-1.3,0.5-2.6,0.5-3.9c0-2-0.4-3.9-1.1-5.7
	c-0.8-1.8-1.8-3.3-3.1-4.6c-1.3-1.3-2.9-2.4-4.6-3.1C39.9,5.3,38,4.9,36,4.9s-3.9,0.4-5.7,1.1c-1.8,0.8-3.3,1.8-4.6,3.1
	c-1.3,1.3-2.4,2.9-3.1,4.6c-0.8,1.8-1.1,3.7-1.1,5.7c0,1.3,0.2,2.6,0.5,3.9c0.4,1.3,0.9,2.5,1.5,3.6c0.7,1.1,1.5,2.1,2.4,3
	c0.8,0.7,1.6,1.4,2.6,2c-1.8,0.7-3.4,1.6-4.9,2.8c-1.6,1.3-3.1,2.7-4.2,4.4s-2.1,3.5-2.7,5.5c-0.6,2-0.9,4.1-0.9,6.2v0.3h3.5v-0.3
	c0-1.5,0.2-3.1,0.6-4.5c0.4-1.4,1-2.8,1.7-4c0.7-1.2,1.6-2.4,2.6-3.4s2.1-1.9,3.4-2.6c1.2-0.7,2.6-1.3,4-1.7
	c1.4-0.4,2.9-0.6,4.5-0.6c2.4,0,4.6,0.4,6.6,1.3c2,0.8,3.8,2,5.3,3.5c1.5,1.5,2.7,3.3,3.5,5.3c0.8,2,1.3,4.3,1.3,6.6v0.3h3.5v-0.3
	C56.2,48.6,55.9,46.5,55.3,44.5z M36,8.4c1.5,0,3,0.3,4.3,0.9c1.3,0.6,2.5,1.4,3.5,2.4c1,1,1.8,2.2,2.4,3.5c0.6,1.3,0.9,2.8,0.9,4.3
	c0,1.5-0.3,3-0.9,4.3c-0.6,1.3-1.4,2.5-2.4,3.5c-1,1-2.2,1.8-3.5,2.4c-2.7,1.2-5.9,1.2-8.6,0c-1.3-0.6-2.5-1.4-3.5-2.4
	c-1-1-1.8-2.2-2.4-3.5C25.2,22.4,25,21,25,19.5c0-1.5,0.3-3,0.9-4.3c0.6-1.3,1.4-2.5,2.4-3.5c1-1,2.2-1.8,3.5-2.4
	C33,8.7,34.5,8.4,36,8.4z"/>
</svg>
