<?xml version="1.0" encoding="utf-8"?>
<!-- Generator: Adobe Illustrator 23.1.1, SVG Export Plug-In . SVG Version: 6.00 Build 0)  -->
<svg version="1.1" id="Layer_1" xmlns="http://www.w3.org/2000/svg" xmlns:xlink="http://www.w3.org/1999/xlink" x="0px" y="0px"
	 viewBox="0 0 72 56" enable-background="new 0 0 72 56" xml:space="preserve">
<rect fill="#f0f0f7" width="72" height="56"/>
<g id="Games">
	<g>
		<g>
			<g>
				<path fill="#107C10" d="M59.8,49.7c-1,0-1.9-0.8-6.9-5.4c-1.6-1.5-3.7-3.4-4.2-3.8c-0.2-0.1-0.4-0.2-0.6-0.4
					c-0.8-0.5-1.4-0.9-5.1-0.9c-4-0.1-6.5,0-6.9,0c-0.5,0-3,0-7,0c-3.8,0.1-4.3,0.4-5.1,0.9c-0.2,0.1-0.4,0.2-0.6,0.4
					c-0.5,0.3-2.6,2.3-4.2,3.7c-5.4,5-6,5.5-7.1,5.4c-1.3-0.1-3.7-1.1-5.2-3.4c-1.7-2.6-2.1-5.8-1.1-11c1-5.5,5.4-19.9,6.6-22.1
					c0.3-0.6,0.9-1.2,1.8-1.7c0.3-1.4,0.6-1.9,1.2-2.3L15.5,9c0.5-0.3,2.6-1.6,4.7-2c0,0,5-1.1,6.4-0.4c0.1,0.1,0.3,0.1,0.5,0.2
					c0.4,0.2,1.4,0.7,1.8,0.8h1.4c0,0,2.7,0,5.7,0s5.7,0,5.7,0h1.4c0.4-0.1,1.3-0.6,1.7-0.8c0.2-0.1,0.4-0.2,0.5-0.2
					C46.8,5.9,51.8,7,51.8,7c2.1,0.4,4.1,1.8,4.8,2.2l0.1,0.1c0.6,0.4,0.9,0.9,1.2,2.3c0.9,0.5,1.5,1.1,1.8,1.7
					c1.1,2.2,5.6,16.5,6.6,22.1l0,0c0.9,5.2,0.6,8.3-1.1,11c-1.5,2.3-3.9,3.3-5.2,3.4C59.9,49.7,59.9,49.7,59.8,49.7z M17.5,11.9
					c-0.1,0.2-0.2,0.6-0.3,1.1L17,13.8l-0.7,0.4c-0.8,0.4-1,0.7-1,0.7c-0.8,1.7-5.2,15.6-6.2,21c-0.9,5.2-0.3,7.1,0.6,8.4
					c0.7,1,1.6,1.5,2.2,1.7c1-0.8,3.3-2.9,4.8-4.3c2.6-2.4,4.1-3.8,4.8-4.2c0.2-0.1,0.3-0.2,0.5-0.3c1.4-0.9,2.4-1.4,7-1.5
					c3.9-0.1,6.4,0,7,0s3,0,7,0c4.5,0.1,5.6,0.6,7,1.5c0.1,0.1,0.3,0.2,0.5,0.3c0.7,0.4,2.2,1.8,4.8,4.2c1.6,1.5,3.9,3.6,4.8,4.3
					c0.6-0.2,1.6-0.7,2.2-1.7c0.9-1.3,1.5-3.2,0.6-8.4l0,0c-1-5.4-5.4-19.4-6.2-21.1c0,0-0.2-0.2-1-0.6L55,13.8L54.8,13
					c-0.1-0.5-0.2-0.9-0.3-1.1c-1.3-0.8-2.5-1.4-3.4-1.5c-1.7-0.4-3.8-0.6-4.4-0.6c-0.1,0-0.2,0.1-0.3,0.1c-1.5,0.7-2.3,1.1-2.9,1.1
					c-0.2,0-0.3,0-1.8,0h-1.9l0,0c-1,0-2.4,0-3.8,0c-1.4,0-2.8,0-3.9,0h-1.9c-1.5,0-1.7,0-1.8,0c-0.6-0.1-1.3-0.4-2.9-1.1
					c-0.1,0-0.2-0.1-0.2-0.1c-0.7,0-2.7,0.2-4.4,0.6C20,10.6,18.9,11.1,17.5,11.9z M55,12.2C55,12.2,55,12.3,55,12.2
					C55,12.3,55,12.2,55,12.2z M17,12.3L17,12.3L17,12.3z M17,12.3L17,12.3L17,12.3z"/>
			</g>
			<g>
				<path fill="#107C10" d="M36.3,20c-1.6,0-2.8-1.3-2.8-2.8c0-1.6,1.3-2.8,2.8-2.8c1.6,0,2.8,1.3,2.8,2.8
					C39.2,18.7,37.9,20,36.3,20"/>
			</g>
		</g>
	</g>
</g>
</svg>
