<?xml version="1.0" encoding="utf-8"?>
<!-- Generator: Adobe Illustrator 23.1.1, SVG Export Plug-In . SVG Version: 6.00 Build 0)  -->
<svg version="1.1" id="Layer_1" xmlns="http://www.w3.org/2000/svg" xmlns:xlink="http://www.w3.org/1999/xlink" x="0px" y="0px"
	 viewBox="0 0 72 56" enable-background="new 0 0 72 56" xml:space="preserve">
<rect fill="#f0f0f7" width="72" height="56"/>
<g id="Deals">
	<path fill="#107C10" d="M58.9,18.4c1.7,1.7,2.9,3.6,3.8,5.7c0.9,2.1,1.3,4.4,1.3,6.7s-0.4,4.6-1.3,6.7c-0.9,2.1-2.1,4-3.8,5.7
		s-3.6,2.9-5.7,3.8c-2.1,0.9-4.4,1.3-6.7,1.3c-1.9,0-3.8-0.3-5.6-0.9s-3.4-1.5-4.9-2.6l-7,7l-21-21L32.5,6.2h21v8.4
		c1,0.4,1.9,1,2.8,1.6C57.2,16.9,58.1,17.6,58.9,18.4z M29,46.8l21-21v-8.6c-0.6-0.1-1.1-0.3-1.7-0.3c-0.6-0.1-1.2-0.1-1.8-0.1h-1.8
		c-0.5,0-0.9-0.2-1.2-0.5C43.2,15.9,43,15.5,43,15s0.2-0.9,0.5-1.2s0.8-0.5,1.2-0.5h1.8c1.2,0,2.4,0.1,3.5,0.4v-4H33.9l-21,21
		L29,46.8z M46.5,44.8c1.9,0,3.7-0.4,5.4-1.1s3.2-1.7,4.4-3c1.3-1.3,2.3-2.7,3-4.4s1.1-3.5,1.1-5.4c0-1.3-0.2-2.5-0.5-3.7
		s-0.8-2.3-1.4-3.3c-0.6-1-1.3-2-2.2-2.8c-0.9-0.9-1.8-1.6-2.9-2.2v8.6l-15,15c1.2,0.8,2.4,1.4,3.8,1.9C43.6,44.5,45,44.8,46.5,44.8
		z"/>
</g>
</svg>
